<svg xmlns="http://www.w3.org/2000/svg" viewBox="0 0 400 850" width="400" height="850">
  <!-- Definitions -->
  <defs>
    <!-- Goal crease gradient -->
    <linearGradient id="creaseGradient" x1="0%" y1="0%" x2="0%" y2="100%">
      <stop offset="0%" style="stop-color:#b3d9ff;stop-opacity:0.6"/>
      <stop offset="100%" style="stop-color:#87ceeb;stop-opacity:0.4"/>
    </linearGradient>
  </defs>
  
  <!-- Background -->
  <rect width="400" height="850" fill="#f8fafc"/>
  
  <!-- Ice surface with rounded corners (boards) -->
  <rect x="10" y="10" width="380" height="830" rx="56" ry="56" fill="#e8f4fc" stroke="#1a365d" stroke-width="4"/>
  
  <!-- Center red line -->
  <line x1="10" y1="425" x2="390" y2="425" stroke="#c53030" stroke-width="12"/>
  
  <!-- Blue lines -->
  <line x1="10" y1="285" x2="390" y2="285" stroke="#2b6cb0" stroke-width="10"/>
  <line x1="10" y1="565" x2="390" y2="565" stroke="#2b6cb0" stroke-width="10"/>
  
  <!-- Goal lines (extend to board curve) -->
  <path d="M 45 70 L 355 70" stroke="#c53030" stroke-width="4" stroke-linecap="round"/>
  <path d="M 45 780 L 355 780" stroke="#c53030" stroke-width="4" stroke-linecap="round"/>
  
  <!-- ========== TOP GOAL CREASE ========== -->
  <!-- Crease body (trapezoid + arc) -->
  <path d="M 165 70 L 165 100 Q 165 115, 200 115 Q 235 115, 235 100 L 235 70 Z" 
        fill="url(#creaseGradient)" stroke="#c53030" stroke-width="2"/>
  <!-- Crease arc -->
  <path d="M 165 100 Q 200 140, 235 100" fill="none" stroke="#c53030" stroke-width="2"/>
  
  <!-- Top goal net -->
  <rect x="175" y="35" width="50" height="35" fill="none" stroke="#1a365d" stroke-width="3" rx="3"/>
  <line x1="175" y1="35" x2="175" y2="70" stroke="#1a365d" stroke-width="2"/>
  <line x1="225" y1="35" x2="225" y2="70" stroke="#1a365d" stroke-width="2"/>
  
  <!-- ========== BOTTOM GOAL CREASE ========== -->
  <path d="M 165 780 L 165 750 Q 165 735, 200 735 Q 235 735, 235 750 L 235 780 Z" 
        fill="url(#creaseGradient)" stroke="#c53030" stroke-width="2"/>
  <!-- Crease arc -->
  <path d="M 165 750 Q 200 710, 235 750" fill="none" stroke="#c53030" stroke-width="2"/>
  
  <!-- Bottom goal net -->
  <rect x="175" y="780" width="50" height="35" fill="none" stroke="#1a365d" stroke-width="3" rx="3"/>
  <line x1="175" y1="780" x2="175" y2="815" stroke="#1a365d" stroke-width="2"/>
  <line x1="225" y1="780" x2="225" y2="815" stroke="#1a365d" stroke-width="2"/>
  
  <!-- ========== CENTER ICE CIRCLE ========== -->
  <circle cx="200" cy="425" r="50" fill="none" stroke="#2b6cb0" stroke-width="3"/>
  <circle cx="200" cy="425" r="6" fill="#2b6cb0"/>
  
  <!-- ========== TOP LEFT FACE-OFF CIRCLE ========== -->
  <circle cx="110" cy="160" r="50" fill="none" stroke="#c53030" stroke-width="2"/>
  <circle cx="110" cy="160" r="6" fill="#c53030"/>
  
  <!-- Top-left L-hashmarks (outer) -->
  <path d="M 60 145 L 60 130 L 75 130" fill="none" stroke="#c53030" stroke-width="3"/>
  <path d="M 60 175 L 60 190 L 75 190" fill="none" stroke="#c53030" stroke-width="3"/>
  
  <!-- Top-left L-hashmarks (inner - closer to dot) -->
  <path d="M 145 130 L 160 130 L 160 145" fill="none" stroke="#c53030" stroke-width="3"/>
  <path d="M 145 190 L 160 190 L 160 175" fill="none" stroke="#c53030" stroke-width="3"/>
  
  <!-- ========== TOP RIGHT FACE-OFF CIRCLE ========== -->
  <circle cx="290" cy="160" r="50" fill="none" stroke="#c53030" stroke-width="2"/>
  <circle cx="290" cy="160" r="6" fill="#c53030"/>
  
  <!-- Top-right L-hashmarks (outer) -->
  <path d="M 340 145 L 340 130 L 325 130" fill="none" stroke="#c53030" stroke-width="3"/>
  <path d="M 340 175 L 340 190 L 325 190" fill="none" stroke="#c53030" stroke-width="3"/>
  
  <!-- Top-right L-hashmarks (inner) -->
  <path d="M 255 130 L 240 130 L 240 145" fill="none" stroke="#c53030" stroke-width="3"/>
  <path d="M 255 190 L 240 190 L 240 175" fill="none" stroke="#c53030" stroke-width="3"/>
  
  <!-- ========== BOTTOM LEFT FACE-OFF CIRCLE ========== -->
  <circle cx="110" cy="690" r="50" fill="none" stroke="#c53030" stroke-width="2"/>
  <circle cx="110" cy="690" r="6" fill="#c53030"/>
  
  <!-- Bottom-left L-hashmarks (outer) -->
  <path d="M 60 675 L 60 660 L 75 660" fill="none" stroke="#c53030" stroke-width="3"/>
  <path d="M 60 705 L 60 720 L 75 720" fill="none" stroke="#c53030" stroke-width="3"/>
  
  <!-- Bottom-left L-hashmarks (inner) -->
  <path d="M 145 660 L 160 660 L 160 675" fill="none" stroke="#c53030" stroke-width="3"/>
  <path d="M 145 720 L 160 720 L 160 705" fill="none" stroke="#c53030" stroke-width="3"/>
  
  <!-- ========== BOTTOM RIGHT FACE-OFF CIRCLE ========== -->
  <circle cx="290" cy="690" r="50" fill="none" stroke="#c53030" stroke-width="2"/>
  <circle cx="290" cy="690" r="6" fill="#c53030"/>
  
  <!-- Bottom-right L-hashmarks (outer) -->
  <path d="M 340 675 L 340 660 L 325 660" fill="none" stroke="#c53030" stroke-width="3"/>
  <path d="M 340 705 L 340 720 L 325 720" fill="none" stroke="#c53030" stroke-width="3"/>
  
  <!-- Bottom-right L-hashmarks (inner) -->
  <path d="M 255 660 L 240 660 L 240 675" fill="none" stroke="#c53030" stroke-width="3"/>
  <path d="M 255 720 L 240 720 L 240 705" fill="none" stroke="#c53030" stroke-width="3"/>
  
  <!-- ========== NEUTRAL ZONE FACE-OFF DOTS ========== -->
  <!-- Upper neutral zone -->
  <circle cx="110" cy="335" r="6" fill="#c53030"/>
  <circle cx="290" cy="335" r="6" fill="#c53030"/>
  
  <!-- Lower neutral zone -->
  <circle cx="110" cy="515" r="6" fill="#c53030"/>
  <circle cx="290" cy="515" r="6" fill="#c53030"/>
  
  <!-- ========== REFEREE CREASE (center ice) ========== -->
  <path d="M 390 415 A 10 10 0 0 0 390 435" fill="none" stroke="#c53030" stroke-width="2"/>
</svg>