<svg xmlns="http://www.w3.org/2000/svg" viewBox="0 0 400 850" width="400" height="850">
  <!-- Background -->
  <rect width="400" height="850" fill="#ffffff"/>
  
  <!-- Ice surface with rounded corners (boards) -->
  <rect x="15" y="15" width="370" height="820" rx="55" ry="55" fill="#e8f4fc" stroke="#1e3a5f" stroke-width="4"/>
  
  <!-- Center red line -->
  <line x1="15" y1="425" x2="385" y2="425" stroke="#c41e3a" stroke-width="10"/>
  
  <!-- Blue lines -->
  <line x1="15" y1="290" x2="385" y2="290" stroke="#1e4d8c" stroke-width="8"/>
  <line x1="15" y1="560" x2="385" y2="560" stroke="#1e4d8c" stroke-width="8"/>
  
  <!-- Goal lines (full width to boards) -->
  <line x1="55" y1="75" x2="345" y2="75" stroke="#c41e3a" stroke-width="4"/>
  <line x1="55" y1="775" x2="345" y2="775" stroke="#c41e3a" stroke-width="4"/>
  
  <!-- Center ice circle -->
  <circle cx="200" cy="425" r="45" fill="none" stroke="#1e4d8c" stroke-width="3"/>
  <circle cx="200" cy="425" r="6" fill="#1e4d8c"/>
  
  <!-- Top zone face-off circles (left and right) -->
  <circle cx="110" cy="160" r="45" fill="none" stroke="#c41e3a" stroke-width="2"/>
  <circle cx="290" cy="160" r="45" fill="none" stroke="#c41e3a" stroke-width="2"/>
  <circle cx="110" cy="160" r="5" fill="#c41e3a"/>
  <circle cx="290" cy="160" r="5" fill="#c41e3a"/>
  
  <!-- Bottom zone face-off circles (left and right) -->
  <circle cx="110" cy="690" r="45" fill="none" stroke="#c41e3a" stroke-width="2"/>
  <circle cx="290" cy="690" r="45" fill="none" stroke="#c41e3a" stroke-width="2"/>
  <circle cx="110" cy="690" r="5" fill="#c41e3a"/>
  <circle cx="290" cy="690" r="5" fill="#c41e3a"/>
  
  <!-- Neutral zone face-off dots -->
  <circle cx="110" cy="340" r="5" fill="#c41e3a"/>
  <circle cx="290" cy="340" r="5" fill="#c41e3a"/>
  <circle cx="110" cy="510" r="5" fill="#c41e3a"/>
  <circle cx="290" cy="510" r="5" fill="#c41e3a"/>
  
  <!-- Top left circle hashmarks -->
  <line x1="104" y1="115" x2="116" y2="115" stroke="#c41e3a" stroke-width="2"/>
  <line x1="104" y1="115" x2="104" y2="127" stroke="#c41e3a" stroke-width="2"/>
  <line x1="116" y1="115" x2="116" y2="127" stroke="#c41e3a" stroke-width="2"/>
  <line x1="104" y1="193" x2="116" y2="193" stroke="#c41e3a" stroke-width="2"/>
  <line x1="104" y1="193" x2="104" y2="205" stroke="#c41e3a" stroke-width="2"/>
  <line x1="116" y1="193" x2="116" y2="205" stroke="#c41e3a" stroke-width="2"/>
  <line x1="65" y1="154" x2="65" y2="166" stroke="#c41e3a" stroke-width="2"/>
  <line x1="65" y1="154" x2="77" y2="154" stroke="#c41e3a" stroke-width="2"/>
  <line x1="65" y1="166" x2="77" y2="166" stroke="#c41e3a" stroke-width="2"/>
  <line x1="143" y1="154" x2="155" y2="154" stroke="#c41e3a" stroke-width="2"/>
  <line x1="143" y1="166" x2="155" y2="166" stroke="#c41e3a" stroke-width="2"/>
  <line x1="155" y1="154" x2="155" y2="166" stroke="#c41e3a" stroke-width="2"/>
  
  <!-- Top right circle hashmarks -->
  <line x1="284" y1="115" x2="296" y2="115" stroke="#c41e3a" stroke-width="2"/>
  <line x1="284" y1="115" x2="284" y2="127" stroke="#c41e3a" stroke-width="2"/>
  <line x1="296" y1="115" x2="296" y2="127" stroke="#c41e3a" stroke-width="2"/>
  <line x1="284" y1="193" x2="296" y2="193" stroke="#c41e3a" stroke-width="2"/>
  <line x1="284" y1="193" x2="284" y2="205" stroke="#c41e3a" stroke-width="2"/>
  <line x1="296" y1="193" x2="296" y2="205" stroke="#c41e3a" stroke-width="2"/>
  <line x1="245" y1="154" x2="245" y2="166" stroke="#c41e3a" stroke-width="2"/>
  <line x1="245" y1="154" x2="257" y2="154" stroke="#c41e3a" stroke-width="2"/>
  <line x1="245" y1="166" x2="257" y2="166" stroke="#c41e3a" stroke-width="2"/>
  <line x1="323" y1="154" x2="335" y2="154" stroke="#c41e3a" stroke-width="2"/>
  <line x1="323" y1="166" x2="335" y2="166" stroke="#c41e3a" stroke-width="2"/>
  <line x1="335" y1="154" x2="335" y2="166" stroke="#c41e3a" stroke-width="2"/>
  
  <!-- Bottom left circle hashmarks -->
  <line x1="104" y1="645" x2="116" y2="645" stroke="#c41e3a" stroke-width="2"/>
  <line x1="104" y1="645" x2="104" y2="657" stroke="#c41e3a" stroke-width="2"/>
  <line x1="116" y1="645" x2="116" y2="657" stroke="#c41e3a" stroke-width="2"/>
  <line x1="104" y1="723" x2="116" y2="723" stroke="#c41e3a" stroke-width="2"/>
  <line x1="104" y1="723" x2="104" y2="735" stroke="#c41e3a" stroke-width="2"/>
  <line x1="116" y1="723" x2="116" y2="735" stroke="#c41e3a" stroke-width="2"/>
  <line x1="65" y1="684" x2="65" y2="696" stroke="#c41e3a" stroke-width="2"/>
  <line x1="65" y1="684" x2="77" y2="684" stroke="#c41e3a" stroke-width="2"/>
  <line x1="65" y1="696" x2="77" y2="696" stroke="#c41e3a" stroke-width="2"/>
  <line x1="143" y1="684" x2="155" y2="684" stroke="#c41e3a" stroke-width="2"/>
  <line x1="143" y1="696" x2="155" y2="696" stroke="#c41e3a" stroke-width="2"/>
  <line x1="155" y1="684" x2="155" y2="696" stroke="#c41e3a" stroke-width="2"/>
  
  <!-- Bottom right circle hashmarks -->
  <line x1="284" y1="645" x2="296" y2="645" stroke="#c41e3a" stroke-width="2"/>
  <line x1="284" y1="645" x2="284" y2="657" stroke="#c41e3a" stroke-width="2"/>
  <line x1="296" y1="645" x2="296" y2="657" stroke="#c41e3a" stroke-width="2"/>
  <line x1="284" y1="723" x2="296" y2="723" stroke="#c41e3a" stroke-width="2"/>
  <line x1="284" y1="723" x2="284" y2="735" stroke="#c41e3a" stroke-width="2"/>
  <line x1="296" y1="723" x2="296" y2="735" stroke="#c41e3a" stroke-width="2"/>
  <line x1="245" y1="684" x2="245" y2="696" stroke="#c41e3a" stroke-width="2"/>
  <line x1="245" y1="684" x2="257" y2="684" stroke="#c41e3a" stroke-width="2"/>
  <line x1="245" y1="696" x2="257" y2="696" stroke="#c41e3a" stroke-width="2"/>
  <line x1="323" y1="684" x2="335" y2="684" stroke="#c41e3a" stroke-width="2"/>
  <line x1="323" y1="696" x2="335" y2="696" stroke="#c41e3a" stroke-width="2"/>
  <line x1="335" y1="684" x2="335" y2="696" stroke="#c41e3a" stroke-width="2"/>
  
  <!-- Top goal crease -->
  <path d="M 170 75 L 170 75 A 30 30 0 0 1 230 75" fill="rgba(135,206,250,0.4)" stroke="#c41e3a" stroke-width="2"/>
  <rect x="170" y="75" width="60" height="12" fill="rgba(135,206,250,0.4)" stroke="#c41e3a" stroke-width="2"/>
  
  <!-- Bottom goal crease -->
  <path d="M 170 775 L 170 775 A 30 30 0 0 0 230 775" fill="rgba(135,206,250,0.4)" stroke="#c41e3a" stroke-width="2"/>
  <rect x="170" y="763" width="60" height="12" fill="rgba(135,206,250,0.4)" stroke="#c41e3a" stroke-width="2"/>
  
  <!-- Top goal (net outline behind goal line) -->
  <rect x="175" y="45" width="50" height="30" fill="none" stroke="#1e3a5f" stroke-width="3" rx="2"/>
  
  <!-- Bottom goal (net outline behind goal line) -->
  <rect x="175" y="775" width="50" height="30" fill="none" stroke="#1e3a5f" stroke-width="3" rx="2"/>
</svg>