<svg xmlns="http://www.w3.org/2000/svg" viewBox="0 0 800 340" width="800" height="340">
  <!-- Background -->
  <rect width="800" height="340" fill="#ffffff"/>
  
  <!-- Ice surface with rounded corners -->
  <rect x="20" y="20" width="760" height="300" rx="85" ry="85" fill="#f0f8ff" stroke="#1e3a5f" stroke-width="3"/>
  
  <!-- Center red line -->
  <line x1="400" y1="20" x2="400" y2="320" stroke="#c41e3a" stroke-width="8"/>
  
  <!-- Blue lines -->
  <line x1="275" y1="20" x2="275" y2="320" stroke="#1e4d8c" stroke-width="6"/>
  <line x1="525" y1="20" x2="525" y2="320" stroke="#1e4d8c" stroke-width="6"/>
  
  <!-- Goal lines -->
  <line x1="65" y1="85" x2="65" y2="255" stroke="#c41e3a" stroke-width="3"/>
  <line x1="735" y1="85" x2="735" y2="255" stroke="#c41e3a" stroke-width="3"/>
  
  <!-- Center ice circle -->
  <circle cx="400" cy="170" r="45" fill="none" stroke="#1e4d8c" stroke-width="3"/>
  
  <!-- Center ice dot -->
  <circle cx="400" cy="170" r="6" fill="#1e4d8c"/>
  
  <!-- Left zone face-off circles -->
  <circle cx="150" cy="105" r="45" fill="none" stroke="#c41e3a" stroke-width="2"/>
  <circle cx="150" cy="235" r="45" fill="none" stroke="#c41e3a" stroke-width="2"/>
  
  <!-- Right zone face-off circles -->
  <circle cx="650" cy="105" r="45" fill="none" stroke="#c41e3a" stroke-width="2"/>
  <circle cx="650" cy="235" r="45" fill="none" stroke="#c41e3a" stroke-width="2"/>
  
  <!-- Left zone face-off dots -->
  <circle cx="150" cy="105" r="5" fill="#c41e3a"/>
  <circle cx="150" cy="235" r="5" fill="#c41e3a"/>
  
  <!-- Right zone face-off dots -->
  <circle cx="650" cy="105" r="5" fill="#c41e3a"/>
  <circle cx="650" cy="235" r="5" fill="#c41e3a"/>
  
  <!-- Neutral zone face-off dots -->
  <circle cx="310" cy="105" r="5" fill="#c41e3a"/>
  <circle cx="310" cy="235" r="5" fill="#c41e3a"/>
  <circle cx="490" cy="105" r="5" fill="#c41e3a"/>
  <circle cx="490" cy="235" r="5" fill="#c41e3a"/>
  
  <!-- Left goal crease -->
  <path d="M 65 140 L 65 200 A 30 30 0 0 0 95 200 L 95 140 A 30 30 0 0 0 65 140" fill="rgba(135,206,250,0.3)" stroke="#c41e3a" stroke-width="2"/>
  
  <!-- Right goal crease -->
  <path d="M 735 140 L 735 200 A 30 30 0 0 1 705 200 L 705 140 A 30 30 0 0 1 735 140" fill="rgba(135,206,250,0.3)" stroke="#c41e3a" stroke-width="2"/>
  
  <!-- Left goal -->
  <rect x="35" y="152" width="30" height="36" fill="none" stroke="#1e3a5f" stroke-width="3"/>
  
  <!-- Right goal -->
  <rect x="735" y="152" width="30" height="36" fill="none" stroke="#1e3a5f" stroke-width="3"/>
  
  <!-- Face-off circle hash marks - Left top circle -->
  <line x1="105" y1="99" x2="105" y2="111" stroke="#c41e3a" stroke-width="2"/>
  <line x1="195" y1="99" x2="195" y2="111" stroke="#c41e3a" stroke-width="2"/>
  <line x1="105" y1="99" x2="115" y2="99" stroke="#c41e3a" stroke-width="2"/>
  <line x1="185" y1="99" x2="195" y2="99" stroke="#c41e3a" stroke-width="2"/>
  <line x1="105" y1="111" x2="115" y2="111" stroke="#c41e3a" stroke-width="2"/>
  <line x1="185" y1="111" x2="195" y2="111" stroke="#c41e3a" stroke-width="2"/>
  
  <!-- Face-off circle hash marks - Left bottom circle -->
  <line x1="105" y1="229" x2="105" y2="241" stroke="#c41e3a" stroke-width="2"/>
  <line x1="195" y1="229" x2="195" y2="241" stroke="#c41e3a" stroke-width="2"/>
  <line x1="105" y1="229" x2="115" y2="229" stroke="#c41e3a" stroke-width="2"/>
  <line x1="185" y1="229" x2="195" y2="229" stroke="#c41e3a" stroke-width="2"/>
  <line x1="105" y1="241" x2="115" y2="241" stroke="#c41e3a" stroke-width="2"/>
  <line x1="185" y1="241" x2="195" y2="241" stroke="#c41e3a" stroke-width="2"/>
  
  <!-- Face-off circle hash marks - Right top circle -->
  <line x1="605" y1="99" x2="605" y2="111" stroke="#c41e3a" stroke-width="2"/>
  <line x1="695" y1="99" x2="695" y2="111" stroke="#c41e3a" stroke-width="2"/>
  <line x1="605" y1="99" x2="615" y2="99" stroke="#c41e3a" stroke-width="2"/>
  <line x1="685" y1="99" x2="695" y2="99" stroke="#c41e3a" stroke-width="2"/>
  <line x1="605" y1="111" x2="615" y2="111" stroke="#c41e3a" stroke-width="2"/>
  <line x1="685" y1="111" x2="695" y2="111" stroke="#c41e3a" stroke-width="2"/>
  
  <!-- Face-off circle hash marks - Right bottom circle -->
  <line x1="605" y1="229" x2="605" y2="241" stroke="#c41e3a" stroke-width="2"/>
  <line x1="695" y1="229" x2="695" y2="241" stroke="#c41e3a" stroke-width="2"/>
  <line x1="605" y1="229" x2="615" y2="229" stroke="#c41e3a" stroke-width="2"/>
  <line x1="685" y1="229" x2="695" y2="229" stroke="#c41e3a" stroke-width="2"/>
  <line x1="605" y1="241" x2="615" y2="241" stroke="#c41e3a" stroke-width="2"/>
  <line x1="685" y1="241" x2="695" y2="241" stroke="#c41e3a" stroke-width="2"/>
</svg>